<?xml version="1.0" encoding="UTF-8" standalone="no"?><svg xmlns="http://www.w3.org/2000/svg" xmlns:xlink="http://www.w3.org/1999/xlink" contentStyleType="text/css" height="419px" preserveAspectRatio="none" style="width:704px;height:419px;background:#FFFFFF;" version="1.1" viewBox="0 0 704 419" width="704px" zoomAndPan="magnify"><defs/><g><!--MD5=[085f471a54620e8b8bbcadea471a2ec7]
cluster GESTION--><g id="cluster_GESTION"><rect height="406" rx="2.5" ry="2.5" style="stroke:#181818;stroke-width:1.0;fill:none;" width="569" x="129" y="7"/><text fill="#000000" font-family="sans-serif" font-size="14" font-weight="bold" lengthAdjust="spacing" textLength="70" x="378.5" y="21.9951">GESTION</text></g><g id="elem_GCH"><ellipse cx="233.7915" cy="204.1583" fill="#F1F1F1" rx="88.7915" ry="20.1583" style="stroke:#181818;stroke-width:0.5;"/><text fill="#000000" font-family="sans-serif" font-size="14" lengthAdjust="spacing" textLength="139" x="164.2915" y="207.005">Gérer ses chantiers</text></g><g id="elem_MDD"><ellipse cx="563.9616" cy="232.9923" fill="#F1F1F1" rx="117.9616" ry="25.9923" style="stroke:#181818;stroke-width:0.5;"/><text fill="#000000" font-family="sans-serif" font-size="14" lengthAdjust="spacing" textLength="203" x="462.4616" y="235.839">Modifer date début chantier</text></g><g id="elem_MDF"><ellipse cx="564.0329" cy="147.8066" fill="#F1F1F1" rx="104.5329" ry="23.3066" style="stroke:#181818;stroke-width:0.5;"/><text fill="#000000" font-family="sans-serif" font-size="14" lengthAdjust="spacing" textLength="174" x="477.0329" y="150.6533">Modifier date fin chatier</text></g><g id="elem_MAC"><ellipse cx="563.8679" cy="66.1736" fill="#F1F1F1" rx="106.3679" ry="23.6736" style="stroke:#181818;stroke-width:0.5;"/><text fill="#000000" font-family="sans-serif" font-size="14" lengthAdjust="spacing" textLength="178" x="474.8679" y="69.0203">Modifer adresse chantier</text></g><g id="elem_GAR"><ellipse cx="233.995" cy="305.199" fill="#F1F1F1" rx="83.995" ry="19.199" style="stroke:#181818;stroke-width:0.5;"/><text fill="#000000" font-family="sans-serif" font-size="14" lengthAdjust="spacing" textLength="128" x="169.7335" y="308.1356">Gérer ses artisans</text></g><g id="elem_SH"><ellipse cx="563.8343" cy="380.1669" fill="#F1F1F1" rx="73.8343" ry="17.1669" style="stroke:#181818;stroke-width:0.5;"/><text fill="#000000" font-family="sans-serif" font-size="14" lengthAdjust="spacing" textLength="103" x="509.3343" y="383.9144">Salaire horaire</text></g><g id="elem_TEL"><ellipse cx="563.8049" cy="311.061" fill="#F1F1F1" rx="70.8049" ry="16.561" style="stroke:#181818;stroke-width:0.5;"/><text fill="#000000" font-family="sans-serif" font-size="14" lengthAdjust="spacing" textLength="95" x="513.3049" y="314.8085">Coordonnées</text></g><!--MD5=[4206b647878100e6066f92523e03a5d6]
entity Entreprise--><g id="elem_Entreprise"><ellipse cx="44" cy="217.5" fill="#F1F1F1" rx="8" ry="8" style="stroke:#181818;stroke-width:0.5;"/><path d="M44,225.5 L44,252.5 M31,233.5 L57,233.5 M44,252.5 L31,267.5 M44,252.5 L57,267.5 " fill="none" style="stroke:#181818;stroke-width:0.5;"/><text fill="#000000" font-family="sans-serif" font-size="14" lengthAdjust="spacing" textLength="76" x="6" y="281.9951">Entreprise</text></g><!--MD5=[b8f9c12333ea67a372169e90f66ef06b]
link Entreprise to GCH--><g id="link_Entreprise_GCH"><path d="M82.1428,238.505 C105.9173,233.067 137.465,225.851 165.562,219.425 " fill="none" id="Entreprise-to-GCH" style="stroke:#181818;stroke-width:1.0;"/><polygon fill="#181818" points="170.766,218.234,161.1009,216.3403,165.8917,219.3483,162.8838,224.1391,170.766,218.234" style="stroke:#181818;stroke-width:1.0;"/></g><!--MD5=[f5eab6881fa5f4d3f4d3ea2db8180747]
reverse link GCH to MDD--><g id="link_GCH_MDD"><path d="M321.45,212.133 C332.075,213.111 342.785,214.086 353,215 C385.62,217.918 421.099,220.996 453.451,223.765 " fill="none" id="GCH-backto-MDD" style="stroke:#181818;stroke-width:1.0;stroke-dasharray:7.0,7.0;"/><polygon fill="#181818" points="316.243,211.654,324.8382,216.4626,321.2219,212.1126,325.5719,208.4963,316.243,211.654" style="stroke:#181818;stroke-width:1.0;"/><text fill="#000000" font-family="sans-serif" font-size="13" lengthAdjust="spacing" textLength="61" x="354" y="211.0669">«extend»</text></g><!--MD5=[9cee1453350496f44ffb0ec3671f38a2]
reverse link GCH to MDF--><g id="link_GCH_MDF"><path d="M310.533,191.104 C361.268,182.442 428.123,171.028 480.29,162.121 " fill="none" id="GCH-backto-MDF" style="stroke:#181818;stroke-width:1.0;stroke-dasharray:7.0,7.0;"/><polygon fill="#181818" points="305.364,191.987,314.9088,194.4153,310.2927,191.1456,313.5625,186.5294,305.364,191.987" style="stroke:#181818;stroke-width:1.0;"/><text fill="#000000" font-family="sans-serif" font-size="13" lengthAdjust="spacing" textLength="61" x="354" y="170.0669">«extend»</text></g><!--MD5=[6aa73c0bc6376273ee23a69fe98576ba]
reverse link GCH to MAC--><g id="link_GCH_MAC"><path d="M276.365,183.482 C318.521,162.93 386.047,130.989 446,107 C464.684,99.524 485.328,92.039 504.007,85.55 " fill="none" id="GCH-backto-MAC" style="stroke:#181818;stroke-width:1.0;stroke-dasharray:7.0,7.0;"/><polygon fill="#181818" points="271.86,185.682,281.7024,185.3266,276.3528,183.4877,278.1916,178.1381,271.86,185.682" style="stroke:#181818;stroke-width:1.0;"/><text fill="#000000" font-family="sans-serif" font-size="13" lengthAdjust="spacing" textLength="61" x="354" y="118.0669">«extend»</text></g><!--MD5=[7c9caf099e0123bf18d814c7840daf65]
link Entreprise to GAR--><g id="link_Entreprise_GAR"><path d="M82.1428,258.459 C109.67,266.951 147.617,278.658 178.565,288.206 " fill="none" id="Entreprise-to-GAR" style="stroke:#181818;stroke-width:1.0;"/><polygon fill="#181818" points="183.469,289.719,176.0488,283.2429,178.6913,288.2446,173.6897,290.8871,183.469,289.719" style="stroke:#181818;stroke-width:1.0;"/></g><!--MD5=[c54ef3f64a979c8d7704802dc0230581]
reverse link GAR to SH--><g id="link_GAR_SH"><path d="M297.303,319.941 C315.268,324.207 334.903,328.828 353,333 C406.334,345.2955 467.398,358.9104 509.879,368.3079 " fill="none" id="GAR-backto-SH" style="stroke:#181818;stroke-width:1.0;stroke-dasharray:7.0,7.0;"/><polygon fill="#181818" points="292.283,318.748,300.1146,324.7201,297.1476,319.9038,301.9639,316.9367,292.283,318.748" style="stroke:#181818;stroke-width:1.0;"/><text fill="#000000" font-family="sans-serif" font-size="13" lengthAdjust="spacing" textLength="61" x="354" y="329.0669">«extend»</text></g><!--MD5=[e832576d7b73a494bb2c09382aaca674]
reverse link GAR to TEL--><g id="link_GAR_TEL"><path d="M322.884,306.608 C376.204,307.583 443.317,308.811 493.026,309.72 " fill="none" id="GAR-backto-TEL" style="stroke:#181818;stroke-width:1.0;stroke-dasharray:7.0,7.0;"/><polygon fill="#181818" points="317.768,306.514,326.6933,310.6779,322.7672,306.6054,326.8396,302.6793,317.768,306.514" style="stroke:#181818;stroke-width:1.0;"/><text fill="#000000" font-family="sans-serif" font-size="13" lengthAdjust="spacing" textLength="61" x="354" y="303.0669">«extend»</text></g><!--MD5=[fbeda490c09b83e36e12d8c0eaae0109]
@startuml
left to right direction

actor Entreprise

rectangle GESTION{
    usecase "Gérer ses chantiers" as GCH
    usecase "Modifer date début chantier" as MDD
    usecase "Modifier date fin chatier" as MDF
    usecase "Modifer adresse chantier" as MAC


    Entreprise - -> GCH

    GCH <.. MDD :<<extend>>
    GCH <.. MDF :<<extend>>
    GCH <.. MAC :<<extend>>




    usecase "Gérer ses artisans" as GAR
    usecase "Salaire horaire" as SH
    usecase "Coordonnées" as TEL

    Entreprise - -> GAR

    GAR <.. SH :<<extend>>
    GAR <.. TEL : <<extend>>

}
@enduml

PlantUML version 1.2022.3beta2(Unknown compile time)
(GPL source distribution)
Java Runtime: Java(TM) SE Runtime Environment
JVM: Java HotSpot(TM) 64-Bit Server VM
Default Encoding: UTF-8
Language: en
Country: US
--></g></svg>